<?xml version="1.0" standalone="no"?>
<!DOCTYPE svg PUBLIC "-//W3C//DTD SVG 20010904//EN"
 "http://www.w3.org/TR/2001/REC-SVG-20010904/DTD/svg10.dtd">
<svg version="1.0" xmlns="http://www.w3.org/2000/svg"
 width="128.000000pt" height="128.000000pt" viewBox="0 0 128.000000 128.000000"
 preserveAspectRatio="xMidYMid meet">

<g transform="translate(0.000000,128.000000) scale(0.100000,-0.100000)"
fill="#000000" stroke="none">
<path d="M535 1239 c-56 -52 -109 -157 -131 -260 l-17 -75 66 -105 67 -104
-86 -12 c-100 -15 -170 -47 -201 -91 -26 -40 -78 -162 -95 -226 -12 -44 -11
-50 12 -92 13 -25 51 -70 83 -100 33 -30 68 -70 76 -90 l16 -37 340 1 c187 1
343 1 346 1 4 1 9 13 13 29 4 17 30 46 69 78 82 67 127 126 127 169 0 57 -83
256 -122 292 -35 32 -91 53 -164 60 -36 3 -66 9 -68 12 -4 6 92 172 105 181 9
6 -5 94 -26 168 -24 79 -60 147 -107 198 l-41 44 -108 0 -109 0 -45 -41z m170
-224 c17 -6 18 -5 5 5 -12 10 -11 11 10 6 14 -3 34 -6 45 -7 17 -1 16 -2 -5
-9 -21 -7 -18 -8 19 -9 25 -1 58 -10 77 -22 30 -18 34 -25 34 -64 0 -91 -69
-214 -158 -282 -24 -18 -48 -33 -52 -33 -5 0 -38 27 -73 60 -77 72 -127 163
-134 248 -5 56 -4 57 27 76 20 11 52 19 84 19 34 0 41 2 21 5 l-30 5 30 8 c31
8 65 5 100 -6z m-41 -739 c-10 -20 -21 -36 -26 -36 -5 0 1 18 12 41 26 50 38
46 14 -5z m-54 24 c0 -5 -11 -10 -25 -10 -14 0 -25 -4 -25 -10 0 -5 9 -10 19
-10 11 0 23 -5 27 -11 4 -7 0 -9 -12 -6 -11 3 -34 8 -51 12 -46 9 -41 21 15
33 26 5 48 10 50 11 1 0 2 -3 2 -9z m161 -6 c49 -8 50 -20 2 -28 -21 -4 -46
-10 -57 -13 -12 -3 -16 -1 -12 6 4 6 18 11 32 11 14 0 22 4 19 10 -3 6 -15 10
-25 10 -10 0 -22 5 -26 12 -5 8 -2 9 10 5 10 -4 35 -10 57 -13z"/>
<path d="M537 923 c-10 -3 -17 -12 -15 -21 2 -13 16 -18 53 -20 28 -1 57 2 65
8 13 9 12 12 -4 25 -19 14 -61 18 -99 8z"/>
<path d="M724 918 c-10 -16 25 -38 61 -38 36 0 71 22 61 38 -4 7 -31 12 -61
12 -30 0 -57 -5 -61 -12z"/>
<path d="M636 739 c3 -5 26 -9 51 -9 26 0 44 2 42 4 -9 8 -98 13 -93 5z"/>
</g>
</svg>
